<svg width="20" height="14" viewBox="0 0 20 14" fill="none" xmlns="http://www.w3.org/2000/svg">
<path d="M0.200012 7C1.1212 5.19302 2.52406 3.67591 4.25353 2.61634C5.98301 1.55677 7.97177 0.996002 10 0.996002C12.0283 0.996002 14.017 1.55677 15.7465 2.61634C17.476 3.67591 18.8788 5.19302 19.8 7C18.8788 8.80699 17.476 10.3241 15.7465 11.3837C14.017 12.4432 12.0283 13.004 10 13.004C7.97177 13.004 5.98301 12.4432 4.25353 11.3837C2.52406 10.3241 1.1212 8.80699 0.200012 7V7ZM10 11C11.0609 11 12.0783 10.5786 12.8284 9.82843C13.5786 9.07829 14 8.06087 14 7C14 5.93914 13.5786 4.92172 12.8284 4.17158C12.0783 3.42143 11.0609 3 10 3C8.93915 3 7.92173 3.42143 7.17159 4.17158C6.42144 4.92172 6.00001 5.93914 6.00001 7C6.00001 8.06087 6.42144 9.07829 7.17159 9.82843C7.92173 10.5786 8.93915 11 10 11V11ZM10 9C9.46958 9 8.96087 8.78929 8.5858 8.41422C8.21073 8.03914 8.00001 7.53044 8.00001 7C8.00001 6.46957 8.21073 5.96086 8.5858 5.58579C8.96087 5.21072 9.46958 5 10 5C10.5304 5 11.0392 5.21072 11.4142 5.58579C11.7893 5.96086 12 6.46957 12 7C12 7.53044 11.7893 8.03914 11.4142 8.41422C11.0392 8.78929 10.5304 9 10 9Z" fill="#FF8730"/>
</svg>
