<?xml version="1.0" encoding="UTF-8"?><svg id="Warstwa_2" xmlns="http://www.w3.org/2000/svg" viewBox="0 0 124.78 124.78"><defs><style>.cls-1{fill:#888;}</style></defs><g id="Warstwa_3"><g><path class="cls-1" d="M121.69,0h-28.34c-1.88,0-3.4,1.53-3.4,3.4s1.53,3.4,3.4,3.4h19.83l-31.24,31.24,4.81,4.81,31.25-31.25V31.44c0,1.88,1.53,3.4,3.4,3.4s3.4-1.53,3.4-3.4V3.1c0-1.71-1.39-3.1-3.1-3.1Z"/><path class="cls-1" d="M124.78,31.44c0,1.88-1.53,3.4-3.4,3.4s-3.4-1.53-3.4-3.4V11.61l-31.25,31.25-4.81-4.81L113.17,6.8h-19.83c-1.88,0-3.4-1.53-3.4-3.4s1.53-3.4,3.4-3.4h28.34c1.71,0,3.1,1.39,3.1,3.1V31.44Z"/><path class="cls-1" d="M121.38,89.94c-1.88,0-3.4,1.53-3.4,3.4v19.83l-31.25-31.24-4.81,4.81,31.24,31.24h-19.83c-1.88,0-3.4,1.53-3.4,3.4s1.53,3.4,3.4,3.4h28.34c1.71,0,3.1-1.39,3.1-3.1v-28.34c0-1.88-1.53-3.4-3.4-3.4Z"/><path class="cls-1" d="M124.78,121.68c0,1.71-1.39,3.1-3.1,3.1h-28.34c-1.88,0-3.4-1.53-3.4-3.4s1.53-3.4,3.4-3.4h19.83l-31.24-31.24,4.81-4.81,31.25,31.24v-19.83c0-1.88,1.53-3.4,3.4-3.4s3.4,1.53,3.4,3.4v28.34Z"/><path class="cls-1" d="M6.81,113.17v-19.83c0-1.88-1.53-3.4-3.4-3.4s-3.4,1.53-3.4,3.4v28.34c0,1.71,1.39,3.1,3.1,3.1H31.44c1.88,0,3.4-1.53,3.4-3.4s-1.53-3.4-3.4-3.4H11.62l31.24-31.24-4.81-4.81L6.81,113.17Z"/><path class="cls-1" d="M11.62,117.98H31.44c1.88,0,3.4,1.53,3.4,3.4s-1.53,3.4-3.4,3.4H3.1c-1.71,0-3.1-1.39-3.1-3.1v-28.34c0-1.88,1.53-3.4,3.4-3.4s3.4,1.53,3.4,3.4v19.83l31.24-31.24,4.81,4.81-31.24,31.24Z"/><path class="cls-1" d="M31.44,6.8c1.88,0,3.4-1.53,3.4-3.4s-1.53-3.4-3.4-3.4H3.1C1.39,0,0,1.39,0,3.1V31.44c0,1.88,1.53,3.4,3.4,3.4s3.4-1.53,3.4-3.4V11.61l31.24,31.25,4.81-4.81L11.62,6.8H31.44Z"/><path class="cls-1" d="M42.86,38.05l-4.81,4.81L6.81,11.61V31.44c0,1.88-1.53,3.4-3.4,3.4s-3.4-1.53-3.4-3.4V3.1C0,1.39,1.39,0,3.1,0H31.44c1.88,0,3.4,1.53,3.4,3.4s-1.53,3.4-3.4,3.4H11.62l31.24,31.24Z"/></g></g></svg>