<svg width="159" height="56" viewBox="0 0 159 56" fill="none" xmlns="http://www.w3.org/2000/svg">
    <g clip-path="url(#clip0_2145_796)">
        <path d="M20.6961 29.5989C20.6961 29.5989 21.4242 30.0114 22.5254 29.5989C22.3858 30.1788 20.9312 30.2899 20.6961 29.5989ZM21.4818 30.6765C22.1826 30.6765 22.7484 30.3006 22.7484 29.8348C22.7484 29.3691 22.1826 28.9932 21.4818 28.9932C20.7811 28.9932 20.2168 29.3691 20.2168 29.8348C20.2168 30.3006 20.7826 30.6765 21.4818 30.6765Z" fill="#00863F"/>
        <path d="M6.25169 42.3109C5.72536 41.836 5.54183 41.1648 5.83609 40.8148C6.11518 40.4814 6.72341 40.553 7.23154 40.9654L6.58387 41.5758L7.00099 41.8908L7.544 41.2805C7.88831 41.7204 7.98235 42.2455 7.7336 42.5377C7.43782 42.8893 6.77499 42.7904 6.25321 42.3124" fill="#00863F"/>
        <path d="M38.2515 31.2504C37.3005 30.9673 35.7594 31.1865 35.5622 31.5106C35.2847 31.9216 34.4459 33.4543 33.7042 33.4634C35.3211 34.4801 35.7807 33.2838 36.1401 32.7815C36.3555 32.3584 36.8015 32.2443 36.7681 32.1682C36.6574 31.9064 36.2433 32.1453 36.175 32.2047C36.0142 32.3432 35.8899 32.4863 35.8004 32.4513C35.949 31.4254 38.1378 31.7511 38.253 31.2504" fill="#00863F"/>
        <path d="M30.7722 30.5715C30.531 30.2169 30.1185 30.0951 29.8879 30.5045C29.6589 30.9094 30.3278 31.3219 30.6569 31.5684C31.2909 31.2549 31.7839 30.7633 31.6489 30.4589C31.5124 30.1575 30.9891 30.1819 30.7707 30.57" fill="#00863F"/>
        <path d="M12.4463 27.5472C11.9852 27.5731 12.5676 26.698 12.2233 25.835C12.7694 26.2155 13.4155 27.4894 12.4463 27.5472ZM11.8744 22.9659C10.9811 23.7513 11.5271 25.0146 11.8866 26.1698C11.6363 25.9978 11.4133 25.8761 11.2829 25.8517C11.4755 26.0389 11.2859 27.1393 11.4998 27.6401C11.7152 28.1424 12.6237 28.3494 12.9908 28.1089C13.0621 28.0632 13.1106 28.0099 13.141 27.9475C14.4697 26.9628 11.5847 24.0999 11.8744 22.9659Z" fill="#00863F"/>
        <path d="M9.25646 29.4817C9.24281 29.5274 9.23523 29.5761 9.23523 29.6294C9.23523 29.7283 9.26101 29.8227 9.29438 29.9079C9.0972 30.0114 8.8803 30.0875 8.80597 29.9551C8.24779 28.9764 8.76199 29.4863 9.25646 29.4802M9.45365 29.2534C9.79644 28.8334 11.0705 28.809 11.0705 28.809C10.3061 28.0723 9.20186 28.4285 9.305 29.2215C8.70738 28.9871 8.00511 28.4757 7.66534 28.6735C7.31041 28.8836 7.9596 30.535 9.01378 30.3052C9.03956 30.43 9.15029 30.5213 9.27618 30.5198C9.41876 30.5152 9.53252 30.395 9.53252 30.2443C9.82829 30.5243 10.2788 30.678 10.6185 30.6278C10.6443 30.6248 10.6701 30.6187 10.6959 30.6111C10.6671 30.8774 10.5791 31.2001 10.3622 31.4695C10.0816 31.6887 9.9193 31.8713 9.95722 31.9459C10.0209 32.0798 10.6686 31.8485 11.4012 31.4284C12.1338 31.0068 12.6738 30.5578 12.6086 30.4239C12.5661 30.3371 12.2916 30.4026 11.9078 30.5669C11.6378 30.5624 11.339 30.5091 11.2116 30.3082C11.6742 29.9292 12.1717 29.2854 12.425 28.7664C12.6162 29.1941 13.2927 28.9536 12.7845 28.5746C12.5919 28.4331 12.1945 28.7557 11.5635 28.8729C10.7778 29.0206 9.86166 28.9962 9.45213 29.2519" fill="#00863F"/>
        <path d="M18.6682 21.0984C19.6131 21.8122 20.5232 21.386 21.7245 22.0146C22.9243 22.6448 22.3024 23.418 24.1089 23.8944C21.6032 25.5914 21.6517 22.6661 20.4671 22.351C19.7891 22.042 17.8127 22.1044 17.1271 21.4682C16.3126 20.7118 17.4229 18.8534 17.4229 18.8534C17.4229 18.8534 17.6398 20.3222 18.6682 21.0999" fill="#00863F"/>
        <path d="M23.3263 25.9461C23.2899 25.8441 23.525 25.6797 23.8465 25.5778C24.1635 25.4773 24.4472 25.4788 24.4805 25.5823C24.5124 25.6858 24.2788 25.8502 23.9618 25.9507C23.6433 26.0511 23.3581 26.0496 23.3263 25.9461ZM26.4053 28.0556C26.152 27.5625 24.5746 26.6432 24.978 26.6188C25.4604 26.593 26.287 27.5671 26.4053 28.0556ZM22.6225 26.5671C22.8014 26.838 23.032 26.9461 23.2899 26.9628C23.6478 27.8791 23.2747 28.4285 23.5492 29.535C23.7555 30.363 27.138 28.287 27.2532 27.4133C27.3427 26.7421 25.97 26.4849 25.201 26.1105C25.2693 25.9278 25.2662 25.7406 25.2162 25.5839C25.107 25.2353 24.4654 25.1272 23.7813 25.3419C23.1003 25.558 22.4192 26.2627 22.6209 26.5656" fill="#00863F"/>
        <path d="M24.2515 52.0945C26.146 52.921 23.933 54.9818 22.6043 54.4247C21.5425 53.9818 22.0385 53.0321 22.8727 52.7307C23.7085 52.4278 24.3349 52.9347 23.9724 53.2436C23.6114 53.5541 23.2777 53.3943 23.1018 52.8525C22.5709 53.1767 22.5663 53.7931 22.9501 53.956C23.5705 54.3182 25.2844 53.0336 23.8768 52.4461C22.668 51.9408 19.2446 53.7931 21.6987 54.8555C23.8056 55.7672 25.1221 54.0914 26.058 53.4735C26.9939 52.857 27.9009 54.2969 27.7553 56C25.8805 55.0016 22.9273 56.5267 21.2862 55.6226C18.603 54.1401 22.3601 51.265 24.253 52.093" fill="#00863F"/>
        <path d="M15.4526 29.7755C15.0976 29.4452 15.4222 28.6842 14.3438 27.9916C15.5845 27.7116 16.5067 27.9703 16.8207 28.4117C17.5564 29.4315 16.0229 30.3006 15.4541 29.7755" fill="#00863F"/>
        <path d="M26.8498 44.2987C26.9271 44.5316 26.8134 44.7751 26.5949 44.8467C26.3811 44.9167 26.1445 44.7888 26.0686 44.5575C25.9943 44.3277 26.1081 44.0811 26.3234 44.0096C26.5373 43.938 26.777 44.0674 26.8498 44.2972M26.0231 43.8467C26.0823 44.0339 25.9973 44.2318 25.832 44.285C25.6667 44.3414 25.4801 44.2318 25.421 44.0446C25.3572 43.8558 25.4437 43.661 25.6075 43.6047C25.7728 43.5514 25.9579 43.661 26.0216 43.8467M25.201 44.4251C25.3785 44.3688 25.5666 44.4662 25.6242 44.6427C25.6834 44.8193 25.5878 45.0111 25.4103 45.0674C25.2359 45.1252 25.0463 45.0293 24.9887 44.8512C24.931 44.6762 25.0251 44.4829 25.201 44.4251ZM27.7068 47.3519C27.7735 46.7005 27.9419 45.8969 27.2578 44.8695C28.5213 45.1206 29.2827 44.5468 29.85 44.7964C29.3494 43.6762 28.4424 43.1816 27.3518 43.594C27.5657 42.8406 27.7234 42.2029 27.5278 41.5286C26.9241 42.1009 26.0747 42.4282 25.8927 43.2805C25.6394 42.7356 26.2082 40.7737 24.3349 40.2593C24.3728 41.5484 23.2899 43.0218 24.8567 44.11C22.4693 44.3977 23.2777 46.8634 23.211 47.1312C23.9345 46.839 25.1525 46.0612 25.6424 45.6792C25.9003 46.4707 27.4701 46.5544 27.7052 47.3519" fill="#00863F"/>
        <path d="M13.3639 48.0413C13.191 47.5878 13.7447 47.74 13.8099 48.0687C13.8751 48.3975 13.4883 48.3671 13.3639 48.0413ZM11.5696 46.0186C10.9143 48.4021 12.7936 47.7689 13.0454 47.9972C10.887 47.7385 11.3572 49.6364 12.0443 50.157C13.4079 51.1889 13.097 49.1981 13.3321 48.9667C13.6901 50.0109 14.2695 50.1676 14.6153 50.1235C15.0506 50.0702 15.4738 49.9058 15.4693 49.7491C15.4617 49.4721 14.6381 48.4934 14.2589 48.3412C14.7427 48.4508 16.6539 48.8632 15.9379 47.8313C15.1113 46.6426 14.4378 46.9501 13.9327 47.673C14.0298 47.4508 15.1947 45.9988 14.6987 45.7416C14.2042 45.4874 12.6677 45.0171 13.367 47.3397C13.1273 47.0262 11.8653 44.9349 11.5665 46.0186" fill="#00863F"/>
        <path d="M25.6181 31.4559C25.2571 31.1378 26.1884 30.9582 26.3492 31.223C26.513 31.4893 25.8745 31.6826 25.6181 31.4559ZM25.2723 31.4757C23.1033 32.1332 24.5018 33.1697 25.5787 33.0418C26.0292 32.9885 26.2628 32.1682 26.102 31.8592C26.8953 33.3751 29.3859 31.7283 26.686 31.2093C27.1258 31.293 28.1133 30.8547 28.0541 30.532C27.9798 30.0936 27.5172 28.9521 26.24 30.9018C26.3234 30.7146 27.0379 29.5092 26.4478 29.5412C25.8563 29.5762 24.2545 30.1652 25.5635 30.9125C25.2526 30.8029 23.9891 30.4178 23.8587 30.8166C23.5234 31.8333 24.9629 31.4285 25.2738 31.4741" fill="#00863F"/>
        <path d="M6.1622 28.9262C6.37152 29.1438 6.45798 29.3965 6.36393 29.4908C6.26534 29.5837 6.01659 29.4848 5.80879 29.2671C5.60099 29.0495 5.50998 28.7968 5.60857 28.7009C5.70716 28.6081 5.95288 28.707 6.1622 28.9246M7.36654 31.3538C7.65776 31.1331 7.71995 30.7176 7.50001 30.4238L6.23197 28.7283C6.01355 28.433 5.59947 28.3767 5.30825 28.5944C5.0155 28.8151 4.95331 29.2321 5.17477 29.5243L6.44129 31.2199C6.66123 31.5136 7.07379 31.5715 7.36654 31.3538Z" fill="#00863F"/>
        <path d="M26.5479 40.0461C26.7011 39.8117 26.912 39.6809 27.0151 39.7493C27.1198 39.8178 27.0803 40.0644 26.9271 40.2973C26.7739 40.5301 26.5646 40.6626 26.4584 40.5926C26.3538 40.5241 26.3917 40.279 26.5464 40.0461M28.4879 38.4602C28.23 38.241 27.8433 38.2699 27.6248 38.5287L26.3538 40.0248C26.1338 40.2821 26.1672 40.6702 26.422 40.8893C26.6814 41.11 27.0682 41.0811 27.2881 40.8209L28.5562 39.3277C28.7746 39.069 28.7427 38.6809 28.4879 38.4617" fill="#00863F"/>
        <path d="M14.2634 17.4303C20.8251 18.6905 11.0751 26.1135 11.5756 19.4698C12.9574 22.698 16.6812 19.5809 14.2634 17.4303Z" fill="#00863F"/>
        <path d="M11.6469 17.4166C13.4459 17.4927 14.6547 17.6388 14.1436 18.9645C13.6294 20.2902 11.022 20.1791 11.6469 17.4166Z" fill="#00863F"/>
        <path d="M25.4422 19.7879C25.4422 19.7879 25.8487 18.6464 27.0576 18.5353C26.912 19.3815 26.6905 19.6402 25.4422 19.7879ZM26.8634 20.2506C26.4721 20.6783 26.2537 20.7452 25.4907 20.3708C25.4907 20.3708 26.1369 19.8716 26.8634 20.2506ZM23.5538 18.6996C23.71 18.6996 23.8389 18.8153 23.8389 18.9599C23.8389 19.1045 23.71 19.2217 23.5538 19.2217C23.3975 19.2217 23.2686 19.103 23.2686 18.9599C23.2686 18.8168 23.396 18.6996 23.5538 18.6996ZM26.8831 25.1424C26.8831 25.1424 26.3887 24.3966 26.7739 23.5686C26.7739 23.5686 27.6006 24.5914 26.8831 25.1424ZM25.0417 21.004C28.2998 23.3403 28.1224 18.7194 27.7553 17.5429C23.801 17.1015 25.2329 19.3785 24.8233 20.4302C24.5488 19.5794 24.3213 18.7209 23.8526 18.555C23.0411 18.2689 23.0062 18.8868 21.9429 18.9234C23.3126 19.4333 23.2838 20.0299 23.1048 20.6798C22.263 19.759 20.951 19.1715 19.2415 19.4957C19.6996 21.2627 21.544 21.7772 22.9304 21.3023C22.8424 21.6859 22.8318 22.0877 23.1185 22.4971C23.6645 23.2764 24.752 23.1698 25.3694 23.1577C24.4866 23.8395 24.9295 24.8167 24.9295 24.8167C25.6394 24.5594 26.0095 24.0404 26.19 23.6493C26.1657 24.1485 25.9018 25.0084 27.4838 26.1424C28.0708 21.6508 26.9666 22.5778 25.9185 22.2277C25.4953 22.0542 25.2238 21.555 25.0114 20.9766L25.0417 21.0055V21.004Z" fill="#00863F"/>
        <path d="M18.9124 18.794C17.8173 18.8123 17.4077 17.7636 15.9395 17.4668C20.9312 17.9097 23.6084 16.473 24.4881 18.4257C23.9133 17.5993 21.2407 18.7545 18.9124 18.794Z" fill="#00863F"/>
        <path d="M17.567 28.2382C16.8708 24.8137 14.5379 24.3373 15.6118 22.3099C16.2929 23.7422 19.7679 23.902 17.567 28.2382Z" fill="#00863F"/>
        <path d="M33.8892 41.2501C33.9893 41.3977 33.7891 41.6975 33.4463 41.9182C33.102 42.1404 32.7471 42.1983 32.6515 42.0522C32.5529 41.9045 32.7516 41.6062 33.0929 41.3855C33.4342 41.1633 33.7921 41.1039 33.8892 41.2501ZM32.4194 39.6032C32.4194 39.6032 31.4002 40.1359 31.0028 40.9715L30.0836 39.6428C30.0836 39.6428 30.9527 38.0097 31.8628 38.3963L32.4194 39.6047V39.6032ZM33.3811 43.2926C34.0379 43.4342 34.3534 42.6107 33.8801 42.0065C34.1759 41.6975 34.3685 41.3003 34.3336 40.8954C34.2578 40.1405 33.6662 40.1131 33.0808 40.4069C33.1308 39.8696 33.5768 39.2684 33.3841 38.7874C33.2522 38.4541 32.2056 37.4374 31.5367 37.2791C30.8693 37.1254 29.448 38.0294 29.3388 38.7996C29.2266 39.5667 30.4355 41.314 30.7904 41.5134C31.0877 41.6793 31.6504 41.4038 31.9644 41.4875C31.8431 41.7462 31.8173 42.0035 31.9447 42.2165C32.198 42.6305 32.6697 42.6792 33.1263 42.5103C32.9761 42.9045 32.8836 43.183 33.3811 43.2926Z" fill="#00863F"/>
        <path d="M31.0376 39.687L30.7494 40.0157L30.5447 39.6763L30.8268 39.4069L30.6766 39.0766L31.0376 38.8712L31.1635 39.104L31.4381 38.8529L31.5806 39.3384L31.3926 39.4374L31.6444 39.7189L31.2985 39.9959L31.0376 39.687Z" fill="#00863F"/>
        <path d="M11.9488 55.0183C11.7258 53.9225 11.9336 52.5055 12.7178 51.6349C12.3007 52.6835 12.1384 53.9027 11.9488 55.0183ZM14.7033 51.8038C13.7143 52.7155 12.9104 53.9483 12.2263 55.1005C12.5221 53.8098 13.458 52.3989 14.7033 51.8038ZM16.0017 53.0503C14.8049 53.5846 13.5854 54.3273 12.5843 55.1644C13.279 54.0564 14.6896 53.1949 16.0017 53.0503ZM15.894 54.6972C14.8277 54.8342 13.6961 55.064 12.6602 55.341C13.5232 54.7017 14.8428 54.4339 15.894 54.6972ZM12.2749 51.3822C12.2749 51.3822 11.6697 51.4035 11.5832 51.7871C11.3239 52.9164 11.3769 55.4095 11.5832 55.6621C11.7486 55.8661 13.5444 55.9483 15.1492 55.7413C15.7847 55.6606 16.1215 54.86 16.1184 54.8037C16.1184 54.8037 16.7858 54.3715 16.4825 53.7885C16.4825 53.7885 16.8799 53.1264 16.2504 52.7064C16.2504 52.7064 16.4309 51.9408 15.4981 51.8145C15.4981 51.8145 15.3145 50.9743 14.4545 51.2589C14.4545 51.2589 14.1527 50.5801 13.3609 51.0367C13.3609 51.0367 12.7193 50.5557 12.2749 51.3807" fill="#00863F"/>
        <path d="M24.9219 49.3183C25.2693 48.2194 26.1354 48.3807 26.1354 48.3807L25.7137 49.4796L24.9219 49.3183ZM24.7627 50.5785L25.4346 50.7612C25.4346 50.7612 24.9856 51.4704 25.0114 51.6759C25.0372 51.8814 25.879 52.6378 25.879 52.6378C25.879 52.6378 27.3169 52.5465 27.5884 52.4993C27.863 52.4537 26.8452 51.4704 26.8452 51.4704L26.4508 51.3319L26.5722 51.0808L27.3154 51.4476L27.687 50.2558L27.141 49.8906L27.7356 48.2437C27.7356 48.2437 26.0019 46.7932 25.5074 46.6334L24.1848 47.4066L23.2686 49.9469L22.0567 49.7262C22.0567 49.7262 21.855 51.0869 22.2023 51.5663L24.344 51.4232L24.7627 50.577V50.5785Z" fill="#00863F"/>
        <path d="M20.6097 55.895C18.518 55.0092 17.8703 56.2816 16.0032 55.8113C17.3228 54.7307 18.069 52.3243 20.6097 55.895Z" fill="#00863F"/>
        <path d="M27.7371 28.2672C29.4981 29.013 30.0426 27.94 31.6155 28.3357C30.5052 29.2474 29.8758 31.2732 27.7371 28.2672Z" fill="#00863F"/>
        <path d="M24.391 37.346C23.7798 37.4251 23.3308 37.314 23.2717 36.8483C23.2762 36.8042 23.2762 36.7615 23.2747 36.7235C23.5416 36.1634 24.3198 36.3445 24.3926 37.346M22.1037 36.6611C22.0537 37.1268 22.3798 37.763 23.3884 38.1161C23.6736 38.2151 23.9754 38.276 24.2788 38.3018C24.1514 38.7797 23.9102 39.3505 23.5128 40.0172C23.9557 39.5742 24.7445 39.5666 25.5544 39.8436C25.8487 39.2227 25.9579 38.6686 25.9336 38.1877C27.3518 37.9015 28.5258 37.2516 28.5258 37.2516C27.9161 36.6169 28.4181 36.0781 28.2149 35.8681C27.6597 36.1649 26.5828 36.6991 25.5741 37.0446C24.7809 35.8133 22.9091 35.5165 22.2433 36.3004C22.1265 36.4404 22.0901 36.5591 22.1037 36.6611Z" fill="#00863F"/>
        <path d="M13.8084 22.9187C14.183 25.1941 18.1085 26.0191 13.8979 27.5091C15.1083 25.5198 11.7713 24.5792 13.8084 22.9187Z" fill="#00863F"/>
        <path d="M17.4684 39.4692C17.7278 41.043 20.4459 41.6138 17.5291 42.6457C18.3679 41.2683 16.0593 40.6184 17.4684 39.4692Z" fill="#00863F"/>
        <path d="M3.81572 30.0114C3.68224 30.5836 3.61398 31.1285 3.9765 31.7373C4.33598 32.3416 5.54031 33.2107 5.18842 34.1969C3.74443 33.611 2.78733 33.0554 2.15483 32.5257C3.03305 32.9519 3.86425 33.0874 4.19947 33.0311C4.02807 32.4436 3.15895 31.5395 1.87422 31.3553C3.50781 31.958 3.58668 32.716 3.58668 32.716C2.77671 32.6658 1.99556 32.2396 1.61788 32.0022C1.52081 31.8895 1.43587 31.7769 1.36609 31.6658C0.835215 30.8454 0.313438 28.5015 0.666851 28.5152C2.11084 28.5685 3.38343 28.0936 4.31171 29.2747C4.87747 29.9961 5.06556 30.8043 5.60554 31.4558C4.9427 31.6399 4.2298 31.2883 3.8142 30.0114" fill="#00863F"/>
        <path d="M9.0881 33.6551L8.28419 32.3218C8.14465 32.0905 8.24779 31.7739 8.51323 31.6126C8.78019 31.4527 9.10933 31.5091 9.24584 31.7404L10.0467 33.0722C10.1863 33.3035 10.0831 33.6216 9.81464 33.783C9.55072 33.9428 9.22309 33.8865 9.08658 33.6551" fill="#00863F"/>
        <path d="M32.6652 34.754L31.5579 33.6596C31.3668 33.4709 31.388 33.1391 31.6064 32.9154C31.8249 32.6947 32.1555 32.6688 32.3481 32.8575L33.4509 33.9519C33.6435 34.1406 33.6223 34.4739 33.4023 34.6962C33.1854 34.9184 32.8548 34.9427 32.6652 34.754Z" fill="#00863F"/>
        <path d="M36.0734 30.3706L35.2695 29.0373C35.13 28.8059 35.2331 28.4893 35.5 28.328C35.7655 28.1682 36.0931 28.2245 36.2327 28.4559L37.032 29.7876C37.1716 30.019 37.0714 30.3356 36.8015 30.4984C36.5375 30.6582 36.2114 30.6004 36.0734 30.3706Z" fill="#00863F"/>
        <path d="M5.51149 34.2731C5.51149 34.2731 5.84216 34.0539 6.71735 33.8119C6.37758 33.5273 5.84367 33.614 5.51453 33.1559C6.1895 33.092 7.08744 33.2503 7.9323 34.6368C7.87618 34.4405 7.76697 34.1939 7.6077 33.9306C7.11778 33.1102 5.97412 32.7617 6.19405 32.1909C7.64714 32.713 7.96263 33.8332 8.98344 34.5105C9.75094 34.9488 11.4634 35.6307 11.2844 36.8788C10.4335 36.2273 9.74335 35.9214 8.39037 35.9564C8.06729 35.964 8.06729 35.3446 6.66274 35.2654C6.957 34.6368 7.63804 35.1924 7.9141 35.0402C7.97477 35.0067 7.9869 34.9093 7.96112 34.7677C7.45602 34.477 6.67488 35.0462 6.20012 34.7525C6.38668 34.5074 6.94335 34.439 7.09958 34.2761C6.68398 34.0691 6.02417 34.7403 5.51149 34.2715" fill="#00863F"/>
        <path d="M9.64628 39.5895C9.71605 39.6078 9.79341 39.6123 9.87532 39.5971C9.91475 39.591 9.95267 39.5773 9.99211 39.5606C10.1726 40.2805 10.479 41.4662 10.7353 42.177C10.476 42.0704 10.1377 42.008 9.77066 42.0141C9.45365 42.0217 9.16697 42.0796 8.94249 42.1694C9.18669 41.4631 9.47792 40.3018 9.6478 39.5895M14.858 38.6656C14.8853 38.6656 14.9141 38.6656 14.9429 38.6611C14.999 38.6504 15.0491 38.6261 15.0931 38.5972C15.2539 39.2562 15.6088 40.658 15.897 41.4616C15.6391 41.3551 15.2994 41.2911 14.9323 41.3003C14.6153 41.3064 14.3317 41.3627 14.1057 41.454C14.3756 40.6747 14.7018 39.3369 14.8595 38.6656M8.45711 42.6975C8.492 43.0597 9.13512 43.3398 9.89503 43.3261C10.6549 43.3109 11.2404 43.008 11.2071 42.6427C11.201 42.591 11.1813 42.5407 11.1525 42.4905C11.1267 41.8634 10.5078 40.4053 10.1301 39.5682C10.7217 39.6169 11.2617 38.8331 11.7774 38.5758C11.8881 38.6946 12.0201 38.7722 12.1566 38.7996C11.9427 40.0248 11.5923 41.7188 12.0322 42.6747C11.788 42.7538 11.6211 42.906 11.6211 43.0826C11.6211 43.1754 11.6697 43.2637 11.7546 43.3383C10.6383 43.4479 9.79644 43.8451 9.79038 44.3093C9.78431 44.8375 10.8764 45.2484 12.2279 45.2241C13.5839 45.2012 14.6836 44.7553 14.6896 44.2256C14.6957 43.8086 14.0207 43.4661 13.0742 43.3504C13.1637 43.2743 13.2229 43.1815 13.2229 43.0826C13.2229 42.8725 12.9893 42.6975 12.6677 42.6366C12.8543 42.2348 13.2381 41.0126 12.5085 38.7448C12.6344 38.6733 12.7314 38.5515 12.7936 38.4054C13.4049 38.5013 14.18 39.1207 14.7351 38.6382C14.7473 38.6428 14.7579 38.6443 14.77 38.6504C14.4303 39.4069 13.7265 41.0491 13.687 41.7462C13.6355 41.8208 13.6097 41.9 13.6172 41.9821C13.6537 42.3444 14.2953 42.6275 15.0567 42.6123C15.8166 42.597 16.4036 42.2911 16.3687 41.9289C16.3642 41.8756 16.3444 41.8254 16.3126 41.7751C16.2853 41.0613 15.4859 39.2684 15.1492 38.5454C15.219 38.4708 15.2584 38.3688 15.2463 38.2623C15.222 38.0781 15.0491 37.9549 14.855 37.9899C14.6623 38.0264 14.5273 38.2029 14.5516 38.3917C14.5592 38.4602 14.591 38.5195 14.635 38.5652C14.1254 38.6763 13.5429 37.964 12.8573 37.8605C12.8543 37.8255 12.8452 37.7905 12.8376 37.7555C12.7284 37.273 12.3477 36.9579 11.9867 37.0508C11.6272 37.1451 11.4255 37.6109 11.5362 38.0918V38.1025C11.0084 38.3902 10.6565 39.0659 10.2545 39.3232C10.2909 39.2486 10.3061 39.1679 10.2985 39.0857C10.2666 38.8513 10.0285 38.6976 9.76459 38.7478C9.49915 38.795 9.31258 39.0233 9.3414 39.2608C9.35657 39.3825 9.42786 39.4799 9.52949 39.5423C9.17152 40.3505 8.56177 41.8132 8.52537 42.4646C8.4738 42.5377 8.44801 42.6168 8.45711 42.699" fill="#00863F"/>
        <path d="M22.8348 44.011C22.897 43.8633 22.6831 43.6411 22.357 43.5087C22.0309 43.3763 21.7184 43.3885 21.6563 43.5361C21.6229 43.6183 21.6729 43.7233 21.7837 43.8253C21.6866 43.8725 21.5622 43.9303 21.4621 44.0399C21.1633 44.3717 20.8994 44.9242 20.91 45.151C20.9252 45.5239 21.8246 45.9059 22.175 45.7476C22.4571 45.5665 22.5861 44.6868 22.5861 44.6898C22.5906 44.6518 22.5952 44.6122 22.5982 44.5772C22.6073 44.4219 22.5299 44.2576 22.4677 44.1236C22.6528 44.1419 22.7969 44.1054 22.8363 44.0095" fill="#00863F"/>
        <path d="M32.5817 44.2835C32.0584 44.3474 31.6171 44.2637 31.5973 44.0993C31.5761 43.9319 31.9856 43.7447 32.5074 43.6807C33.0322 43.6168 33.4706 43.699 33.4903 43.8664C33.513 44.0308 33.105 44.2195 32.5817 44.2835ZM29.1386 42.7736C29.8197 43.7812 31.4062 44.9334 32.1449 44.9638C33.2082 45.0064 34.3549 44.3033 34.0363 43.8664C33.7967 43.5346 32.3284 43.3398 31.5943 43.8025C30.6569 44.3946 30.2034 40.6017 29.1386 40.6017C28.5728 40.6017 28.362 41.623 29.1386 42.7736Z" fill="#00863F"/>
        <path d="M17.3015 30.7815C17.4684 29.4665 18.2723 27.8212 18.7592 27.7009C19.3871 27.5137 21.3347 27.08 21.6987 25.3418C22.762 28.7664 20.7962 28.6218 20.0151 28.8729C19.3993 28.9779 19.0337 29.4969 18.9609 29.4239C18.7122 29.1773 19.2142 28.7511 19.3174 28.6887C19.5646 28.5396 19.8012 28.4376 19.8043 28.3113C18.377 28.2884 18.0857 30.7298 17.3031 30.7815" fill="#00863F"/>
        <path d="M19.3659 26.876C19.6404 24.1973 17.385 23.7087 16.7236 22.3845C18.5119 22.523 23.9512 23.7848 19.3659 26.876Z" fill="#00863F"/>
        <path d="M32.2359 36.4161C32.3026 36.9625 33.5343 37.6991 34.0151 38.1344C34.2032 37.3521 35.4864 35.6687 34.7993 35.206C34.2714 34.8499 33.6298 35.3735 33.6723 36.0706C33.0155 35.3948 32.1722 35.9199 32.2359 36.4161Z" fill="#00863F"/>
        <path d="M36.5224 34.2594C36.6301 34.3781 36.5072 34.6642 36.2463 34.9017C35.99 35.1406 35.6912 35.2395 35.5835 35.1208C35.4773 35.0036 35.6002 34.716 35.861 34.477C36.1189 34.2411 36.4147 34.1422 36.5209 34.2594M38.5427 34.2122C38.8886 33.9641 38.9705 33.4786 38.7202 33.1315C38.473 32.783 37.9891 32.7008 37.6418 32.9489L35.632 34.3903C35.2847 34.6414 35.2043 35.1254 35.4515 35.4724C35.6987 35.821 36.1826 35.9047 36.5315 35.6551L38.5427 34.2122Z" fill="#00863F"/>
        <path d="M38.6337 31.7069C38.5928 31.6917 38.5458 30.5121 38.1287 29.6521C37.7843 28.9429 37.0532 28.5258 37.0639 28.5106C37.2125 28.328 38.1924 28.3173 38.523 28.465C38.9341 28.6476 38.8537 31.7799 38.6337 31.7069Z" fill="#00863F"/>
        <path d="M6.50196 44.145C6.16372 44.0445 5.88008 43.8832 5.64497 43.7082C4.83955 42.8482 4.69849 41.4967 4.39513 40.1847C4.43912 39.3917 4.96697 39.0173 5.29763 38.862C5.99687 41.3688 9.41724 38.0919 9.45061 36.8043C7.35592 36.1878 3.23175 36.6779 5.17173 38.6505C4.54985 38.7875 4.28896 39.1101 4.20553 39.4541C3.98257 38.7053 3.66707 38.0341 3.09827 37.5835C5.18993 36.9565 5.03674 35.7327 4.64389 35.2213C3.93858 34.3066 2.51886 34.4421 0.845833 32.2412C0.569776 33.3416 0.349841 36.4892 0.625898 37.3811C0.892854 38.2502 2.30347 38.5363 2.96783 37.6794C3.70044 38.6611 3.88701 40.0036 4.05385 41.2668C3.69286 41.0157 3.20748 41.1162 2.88592 40.8772C4.04324 40.3825 3.5973 39.3536 3.25754 39.1147C2.62958 38.6703 2.04713 39.6428 0.553091 38.5698C0.592528 39.3232 0.113221 42.9167 2.69936 40.9579C3.07856 41.4434 3.71409 41.5575 4.14031 41.9061C4.17671 42.1633 4.21767 42.4175 4.26772 42.6565C3.92796 42.4906 3.61398 42.7006 3.24844 43.0781C2.6129 40.9533 0.389278 42.4966 0.524272 44.8893C1.448 44.8177 2.80402 45.0445 3.37888 44.8147C3.94009 44.5894 3.9583 43.7036 3.35006 43.3109C3.63825 42.9928 4.04779 42.9852 4.40423 43.2135C4.70001 44.2135 5.25061 44.9075 6.52775 44.8954C7.9232 44.9836 8.47531 44.32 9.30803 44.8314C8.31757 44.2241 7.98842 44.2515 7.30131 44.2241C7.23912 44.2211 6.82807 44.1785 6.50045 44.142M7.65321 37.5774C7.10716 38.1421 6.19254 38.1695 5.52666 38.5637C5.85126 37.722 6.85841 37.7936 7.65321 37.5774ZM2.9739 37.0219C2.60076 35.92 1.65125 36.0219 1.57541 34.8439C2.27617 35.8712 3.42287 35.7464 2.9739 37.0219ZM1.26447 39.4678C1.90911 39.9838 2.61442 39.6809 2.57953 40.5804C2.12752 39.9533 1.54356 40.2029 1.26447 39.4678ZM1.55266 44.3931C2.19578 43.871 2.05472 43.1146 2.92081 43.3459C2.20943 43.6534 2.32623 44.2789 1.55266 44.3931Z" fill="#00863F"/>
        <path d="M18.8987 49.3335C18.5893 50.8875 18.0129 50.5968 18.0129 50.5968C18.4422 49.5253 18.5226 49.0946 18.5226 49.0946L18.8987 49.3335ZM17.0225 50.7384C17.1392 50.7825 17.2712 50.7429 17.391 50.6501C17.4654 50.6699 17.5548 50.6958 17.6519 50.7232C17.4881 51.0915 17.3182 51.4294 17.1787 51.7216C17.0088 52.1128 17.435 52.6851 18.1312 53.0016C18.8259 53.3152 19.5267 53.2543 19.6966 52.8631C19.6966 52.8631 19.8407 52.2421 20.1516 51.5405C20.2305 51.5725 20.3078 51.6044 20.3791 51.6349C20.4019 51.8282 20.4989 51.9834 20.6537 52.0428C20.8979 52.1356 21.1891 51.9423 21.3074 51.6135C21.4272 51.2817 21.3226 50.9408 21.0784 50.848C20.8812 50.7734 20.6552 50.8845 20.5126 51.0991C20.4686 51.0991 20.4201 51.0945 20.3715 51.09C20.6051 50.6562 20.9039 50.2361 21.271 49.9561C21.453 49.9454 21.5819 49.8952 21.6229 49.7978C21.6972 49.6243 21.4879 49.3442 21.1041 49.052C21.1876 49.157 21.224 49.2529 21.1952 49.3214C21.1087 49.5208 20.5096 49.4416 19.8573 49.1463C19.2021 48.8495 18.744 48.4477 18.832 48.2468C18.8638 48.1738 18.967 48.1372 19.1141 48.1372C18.6196 48.0261 18.2526 48.0505 18.1737 48.2301C18.1373 48.3184 18.1692 48.4325 18.2617 48.5588C18.2253 49.1403 18.0539 49.7247 17.843 50.2635C17.793 50.2376 17.7414 50.2102 17.6898 50.1844C17.8021 49.8282 17.7187 49.4858 17.4972 49.399C17.2682 49.3138 16.9785 49.5436 16.8465 49.9134C16.7145 50.2803 16.7934 50.6501 17.0225 50.7384Z" fill="#00863F"/>
        <path d="M20.7492 49.02L20.775 49.224C20.775 49.224 20.1546 49.2529 19.5783 48.7978C19.5783 48.7978 19.8968 48.4888 20.3867 48.6578C20.3867 48.6578 21.4636 45.9699 22.2933 46.6365C23.1822 47.3504 20.7477 49.02 20.7477 49.02" fill="#00863F"/>
        <path d="M17.7793 47.3367C17.6838 47.4143 17.432 47.2743 17.2136 47.0216C16.9982 46.7705 16.9011 46.5026 16.9951 46.425C17.0907 46.3474 17.3455 46.4859 17.5609 46.74C17.7793 46.9897 17.8764 47.256 17.7793 47.3367ZM16.1837 44.422C15.9106 45.387 15.6498 46.9607 16.7631 47.9516C17.4411 48.5528 18.8654 47.4737 18.113 46.5711C17.3531 45.6594 16.6084 45.6366 16.1837 44.422Z" fill="#00863F"/>
        <path d="M26.9135 35.238C26.9772 35.4679 26.0079 35.7981 25.879 35.5181C25.7486 35.2395 26.8285 34.9397 26.9135 35.238ZM24.9432 34.6749C24.3774 35.4374 25.8259 36.7524 27.0045 35.6581C27.5111 35.1878 27.6613 34.1422 27.0363 32.9413C26.3614 34.2898 25.2996 34.197 24.9432 34.6749Z" fill="#00863F"/>
        <path d="M29.9364 33.5958C30.3141 34.5029 30.2883 35.2137 30.035 36.0311C29.4177 34.5425 29.9364 33.5958 29.9364 33.5958ZM29.7453 37.1848C33.7087 35.9123 29.8545 33.0403 29.5254 31.2732C27.4322 33.538 29.5785 36.3552 29.7453 37.1848Z" fill="#00863F"/>
        <path d="M37.4825 43.8116C36.8242 44.0628 36.0855 43.559 36.0855 43.559L36.1629 42.3687C36.4162 42.6442 37.6858 42.8436 37.6858 42.8436L37.484 43.8116H37.4825ZM36.6862 41.2942C36.2129 41.3794 35.7867 41.6275 35.5531 41.8863C35.2073 42.2668 35.0298 43.8969 35.356 44.6624C35.6108 45.2636 38.2424 45.0445 38.4411 44.8633C38.6429 44.6807 38.7976 42.9334 38.4411 42.2211C38.294 41.9243 38.1135 41.7066 37.9118 41.559C37.9254 41.4038 37.9664 41.2044 38.0725 40.9761C38.2045 40.9517 38.341 40.9167 38.479 40.8604L38.5882 39.8985C38.5882 39.8985 38.0225 39.2668 36.6179 39.6763C36.6179 39.6763 36.4981 40.1192 36.4981 40.6884C36.4981 40.6884 36.5937 40.7478 36.7575 40.8163C36.7863 40.9 36.803 41.0613 36.6877 41.2942" fill="#00863F"/>
        <path d="M35.8459 38.4556C35.7306 38.3566 35.767 38.1162 35.9369 37.9168C36.0992 37.7144 36.3313 37.6337 36.4511 37.7341C36.5694 37.8315 36.5284 38.0736 36.3631 38.2729C36.1963 38.4738 35.9657 38.5545 35.8474 38.4556M35.2922 38.8376C35.092 39.0157 35.1315 39.3962 35.0511 39.5012C34.7932 39.8498 34.4125 40.2044 34.6597 40.4129C34.907 40.6199 35.1846 40.1907 35.4773 39.8741C35.5668 39.7797 35.9399 39.7615 36.0749 39.5408C36.1523 39.416 36.1917 39.2577 36.2054 39.1085C36.4359 39.2364 36.6938 39.2318 36.8242 39.0766L38.5427 37.2258C38.8431 36.2273 37.622 35.3933 36.8955 36.2502L35.588 38.0385C35.4591 38.1907 35.4985 38.4404 35.6608 38.6489C35.5289 38.6854 35.3924 38.7463 35.2922 38.8361" fill="#00863F"/>
        <path d="M19.5813 43.8938C19.5692 43.4783 19.5555 43.0445 19.5464 42.6062C18.6105 43.0187 17.7217 43.4479 17.7111 44.3002C17.6914 46.116 19.3962 46.5148 19.3962 46.5148C19.3962 46.5148 18.3512 45.8101 18.6394 44.7096C18.7273 44.3748 19.0944 44.1313 19.5813 43.8954" fill="#00863F"/>
        <path d="M21.1512 31.7313C21.2452 31.5669 21.4469 31.5121 21.6123 31.6034C21.7731 31.6963 21.8337 31.9048 21.7442 32.0661C21.6563 32.229 21.4485 32.2838 21.2846 32.1925C21.1208 32.0996 21.0617 31.8926 21.1512 31.7313ZM13.8432 35.1726C13.775 39.5256 21.1997 38.5363 21.3559 40.4251C21.3969 40.8954 21.1739 41.2424 20.8235 41.5255C20.8053 42.0187 20.7871 42.5088 20.7629 42.9867C21.8625 42.4646 22.9198 41.7462 22.9182 40.3262C22.9137 37.4952 16.0441 38.3354 15.9789 35.1437C15.9349 32.7845 18.9291 32.0311 20.5793 32.7221C21.2771 33.0144 21.5046 33.8469 21.7518 33.7525C21.7518 33.4558 21.7791 33.1924 21.8034 32.9535C22.3434 33.1529 22.8378 33.2472 22.9046 33.1118C23.1988 32.5304 21.7245 30.8257 20.6825 31.4284C18.3405 30.7618 13.9024 31.296 13.8432 35.1726Z" fill="#00863F"/>
        <path d="M23.757 34.1468C21.4151 34.509 18.6287 34.4801 16.4142 34.0707C16.71 35.127 17.9674 35.9534 19.5403 36.1193C19.5403 36.3766 19.5403 36.8712 19.5449 37.512C19.8027 37.6124 20.0606 37.7114 20.3184 37.8149C20.4125 37.8544 20.5096 37.8925 20.6021 37.9351C20.6248 36.9945 20.6355 36.3141 20.6385 36.1269C22.1962 35.9823 23.443 35.1833 23.757 34.1468Z" fill="#00863F"/>
        <path d="M19.5722 40.5089C19.6162 43.6214 19.7284 47.1738 19.9984 47.151C20.2669 47.1267 20.4368 43.591 20.5323 40.518C20.5369 40.3338 20.5444 40.1497 20.5505 39.9686C20.4413 39.9016 20.3109 39.8346 20.1561 39.7646C19.9802 39.6885 19.7815 39.6094 19.5585 39.5317C19.5631 39.8468 19.5661 40.1756 19.5722 40.5074" fill="#00863F"/>
        <path d="M34.4368 30.1955C34.7477 29.6628 35.0238 29.0814 34.6628 28.5365C34.3518 28.0647 33.4524 28.3234 33.4524 28.3234C33.4524 28.3234 32.5696 28.0114 32.2314 28.4635C31.8385 28.9855 32.0782 29.5822 32.3573 30.1347C32.4816 30.3827 32.3815 30.8013 32.2844 31.089C31.9659 32.0265 32.3572 32.5166 32.5347 32.2959C32.835 31.9261 32.9655 31.0053 33.372 30.987C33.777 31.0281 33.8513 31.958 34.1273 32.3431C34.2927 32.5729 34.7128 32.1087 34.4519 31.1514C34.3716 30.8622 34.2957 30.4375 34.4368 30.1971M32.832 29.8363C32.2283 29.7252 32.1358 28.6811 32.8578 28.5274C32.8578 28.5274 32.4164 29.0403 32.832 29.8363Z" fill="#00863F"/>
        <path d="M12.6328 33.78L11.8593 33.2046L12.8361 31.885L13.6097 32.4588L12.6328 33.78ZM14.7973 30.0312C14.6987 29.9581 14.5607 29.9779 14.4864 30.0784L14.2528 30.398L13.5672 30.4604L11.6515 33.0509L11.6454 33.0585L11.3906 32.8728C11.2738 32.7876 11.1115 32.815 11.0266 32.9307C10.9401 33.0479 10.9659 33.2122 11.0827 33.299L11.3102 33.4664L11.3011 33.4771L10.9659 33.9306C10.7126 34.2731 10.7839 34.7571 11.1252 35.0113C11.4679 35.2654 11.9503 35.1939 12.2021 34.8499L12.5373 34.3964L12.5525 34.3766L12.7603 34.5288C12.8786 34.614 13.0409 34.5881 13.1258 34.471C13.2123 34.3553 13.1865 34.1909 13.0697 34.1041L12.8406 33.9367V33.9337L14.7548 31.3432L14.6138 30.6567L14.8443 30.3417C14.9171 30.2428 14.8959 30.1027 14.7973 30.0297" fill="#00863F"/>
        <path d="M61.1976 53.7215H62.3109C62.3109 54.4719 62.9267 54.8859 63.7109 54.8859C64.4223 54.8859 65.032 54.5115 65.032 53.8935C65.032 53.2253 64.3161 53.0564 63.5092 52.8661C62.4853 52.6165 61.3113 52.3334 61.3113 50.9484C61.3113 49.7369 62.226 49.0215 63.6518 49.0215C65.0776 49.0215 65.9618 49.8145 65.9618 51.0808H64.8758C64.8758 50.4111 64.3252 50.0489 63.626 50.0489C62.9267 50.0489 62.408 50.3548 62.408 50.9012C62.408 51.5207 63.0951 51.6896 63.8899 51.8799C64.9304 52.1386 66.1545 52.4369 66.1545 53.8798C66.1545 55.2222 65.0745 55.9361 63.72 55.9361C62.2199 55.9361 61.1976 55.0914 61.1976 53.72V53.7215ZM63.7261 47.049H64.8546L63.9172 48.4112H63.0996L63.7261 47.049Z" fill="#00863F"/>
        <path d="M76.7326 49.1235L74.644 55.8356H73.6702L71.9775 51.5054L70.3287 55.8356H69.3549L67.2193 49.1235H68.3857L69.8979 54.0777L71.7696 49.2209H72.1761L74.101 54.0807L75.5798 49.1219H76.7311L76.7326 49.1235Z" fill="#00863F"/>
        <path d="M78.442 49.1235H79.5402V55.8357H78.442V49.1235Z" fill="#00863F"/>
        <path d="M85.9062 54.3745H82.9226L82.3539 55.8357H81.1874L83.8752 49.1235H84.9066L87.6732 55.8357H86.4826L85.9047 54.3745H85.9062ZM83.3034 53.3883H85.5255L84.4061 50.5573L83.3034 53.3883Z" fill="#00863F"/>
        <path d="M93.07 50.1509H91.1088V55.8357H90.0106V50.1509H88.0494V49.1235H93.07V50.1509Z" fill="#00863F"/>
        <path d="M101.921 54.8083V55.8357H96.9636V55.6606L100.132 50.1509H97.1198V49.1235H101.82V49.329L98.6715 54.8083H101.922H101.921Z" fill="#00863F"/>
        <path d="M109.451 52.4766C109.451 54.4232 108.024 55.8357 106.058 55.8357H103.7V49.1235H106.058C108.027 49.1235 109.451 50.5329 109.451 52.4766ZM108.329 52.4766C108.329 51.122 107.379 50.1509 106.028 50.1509H104.799V54.8083H106.028C107.379 54.8083 108.329 53.8281 108.329 52.4766Z" fill="#00863F"/>
        <path d="M113.77 53.3517H112.5V55.8357H111.402V49.1235H114.006C115.296 49.1235 116.254 50.0094 116.254 51.2468C116.254 52.1615 115.711 52.8921 114.894 53.1965L116.438 55.8357H115.206L113.768 53.3517H113.77ZM112.502 52.3198H113.944C114.671 52.3198 115.139 51.8678 115.139 51.2376C115.139 50.6075 114.672 50.1555 113.944 50.1555H112.502V52.3213V52.3198Z" fill="#00863F"/>
        <path d="M121.373 55.962C119.342 55.962 117.844 54.4674 117.844 52.4796C117.844 50.4918 119.341 48.9972 121.373 48.9972C123.406 48.9972 124.897 50.4888 124.897 52.4796C124.897 54.4704 123.401 55.962 121.373 55.962ZM123.781 52.4796C123.781 51.0945 122.754 50.058 121.373 50.058C119.993 50.058 118.962 51.1037 118.962 52.4796C118.962 53.8555 119.995 54.9011 121.373 54.9011C122.752 54.9011 123.781 53.8646 123.781 52.4796Z" fill="#00863F"/>
        <path d="M135.525 49.1235L133.436 55.8356H132.463L130.77 51.5054L129.121 55.8356H128.147L126.012 49.1235H127.178L128.69 54.0777L130.562 49.2209H130.969L132.893 54.0807L134.372 49.1219H135.524L135.525 49.1235Z" fill="#00863F"/>
        <path d="M137.235 49.1235H138.333V55.8357H137.235V49.1235Z" fill="#00863F"/>
        <path d="M144.699 54.3745H141.715L141.146 55.8357H139.98L142.668 49.1235H143.699L146.466 55.8357H145.275L144.697 54.3745H144.699ZM142.094 53.3883H144.316L143.197 50.5573L142.094 53.3883Z" fill="#00863F"/>
        <path d="M0.914084 5.80046L1.16891 5.29667C1.60878 5.72893 2.39144 6.04703 3.20141 6.04703C4.35417 6.04703 4.85472 5.5615 4.85472 4.95269C4.85472 3.25715 1.06273 4.29974 1.06273 2.01365C1.06273 1.105 1.76652 0.318115 3.33186 0.318115C4.02655 0.318115 4.74854 0.520545 5.2415 0.866046L5.02156 1.38658C4.49372 1.0426 3.8779 0.875178 3.33186 0.875178C2.20639 0.875178 1.70433 1.37897 1.70433 1.99691C1.70433 3.69245 5.49632 2.66813 5.49632 4.91921C5.49632 5.82786 4.77433 6.60562 3.19989 6.60562C2.27617 6.60562 1.37064 6.27838 0.912567 5.80198L0.914084 5.80046Z" fill="#808285"/>
        <path d="M10.8097 4.42299H6.93879C7.00857 5.39404 7.74876 6.03786 8.76046 6.03786C9.3232 6.03786 9.82526 5.83543 10.1772 5.42905L10.529 5.83543C10.115 6.33009 9.47336 6.59493 8.74378 6.59493C7.30131 6.59493 6.31539 5.60561 6.31539 4.22969C6.31539 2.85378 7.27401 1.87207 8.57693 1.87207C9.87986 1.87207 10.8203 2.83399 10.8203 4.22969C10.8203 4.28296 10.8112 4.35298 10.8112 4.42451L10.8097 4.42299ZM6.94031 3.95421H10.2211C10.1423 3.04555 9.48246 2.40935 8.57542 2.40935C7.66837 2.40935 7.01767 3.04555 6.93879 3.95421H6.94031Z" fill="#808285"/>
        <path d="M14.4257 1.87213V2.48094C14.3726 2.48094 14.3195 2.47181 14.2755 2.47181C13.3078 2.47181 12.7178 3.08975 12.7178 4.18409V6.54932H12.0929V1.90713H12.6905V2.81579C12.9802 2.19784 13.5702 1.87061 14.4242 1.87061L14.4257 1.87213Z" fill="#808285"/>
        <path d="M22.5451 1.9071L20.7947 6.55081H20.2047L18.744 2.74574L17.2833 6.55081H16.6933L14.952 1.9071H15.5496L17.0012 5.8522L18.4877 1.9071H19.0246L20.502 5.8522L21.9717 1.9071H22.5436H22.5451Z" fill="#808285"/>
        <path d="M23.346 0.441388C23.346 0.20243 23.5477 0 23.804 0C24.0604 0 24.2621 0.19482 24.2621 0.432256C24.2621 0.687957 24.068 0.891909 23.804 0.891909C23.5401 0.891909 23.346 0.689479 23.346 0.441388ZM23.487 1.9071H24.1119V6.55081H23.487V1.9071Z" fill="#808285"/>
        <path d="M25.2116 6.02118L25.4937 5.52652C25.8638 5.81723 26.4872 6.04705 27.1395 6.04705C28.0192 6.04705 28.3802 5.74721 28.3802 5.28756C28.3802 4.07755 25.38 5.03186 25.38 3.19477C25.38 2.43528 26.0307 1.87061 27.2092 1.87061C27.8069 1.87061 28.4591 2.03803 28.8459 2.30286L28.5728 2.80665C28.1679 2.52356 27.684 2.4094 27.2092 2.4094C26.3735 2.4094 26.0034 2.73664 26.0034 3.17803C26.0034 4.43218 29.0036 3.487 29.0036 5.27082C29.0036 6.07445 28.2998 6.59498 27.0955 6.59498C26.3295 6.59498 25.5908 6.34841 25.2131 6.02118H25.2116Z" fill="#808285"/>
        <path d="M34.7917 1.87213V2.48094C34.7386 2.48094 34.6855 2.47181 34.6415 2.47181C33.6738 2.47181 33.0838 3.08975 33.0838 4.18409V6.54932H32.4589V1.90713H33.0565V2.81579C33.3462 2.19784 33.9362 1.87061 34.7902 1.87061L34.7917 1.87213Z" fill="#808285"/>
        <path d="M39.9033 4.42299H36.0324C36.1022 5.39404 36.8424 6.03786 37.8541 6.03786C38.4168 6.03786 38.9189 5.83543 39.2708 5.42905L39.6227 5.83543C39.2086 6.33009 38.567 6.59493 37.8374 6.59493C36.395 6.59493 35.409 5.60561 35.409 4.22969C35.409 2.85378 36.3676 1.87207 37.6706 1.87207C38.9735 1.87207 39.9139 2.83399 39.9139 4.22969C39.9139 4.28296 39.9048 4.35298 39.9048 4.42451L39.9033 4.42299ZM36.0324 3.95421H39.3133C39.2344 3.04555 38.5746 2.40935 37.6675 2.40935C36.7605 2.40935 36.1098 3.04555 36.0309 3.95421H36.0324Z" fill="#808285"/>
        <path d="M44.4082 6.02882V6.54935H40.6435V6.13383L43.5557 2.43531H40.6966V1.90564H44.3566V2.32115L41.4444 6.02882H44.4097H44.4082Z" fill="#808285"/>
        <path d="M49.5896 4.42299H45.7187C45.7885 5.39404 46.5287 6.03786 47.5404 6.03786C48.1031 6.03786 48.6052 5.83543 48.957 5.42905L49.3089 5.83543C48.8949 6.33009 48.2533 6.59493 47.5237 6.59493C46.0812 6.59493 45.0953 5.60561 45.0953 4.22969C45.0953 2.85378 46.0539 1.87207 47.3568 1.87207C48.6598 1.87207 49.6002 2.83399 49.6002 4.22969C49.6002 4.28296 49.5911 4.35298 49.5911 4.42451L49.5896 4.42299ZM45.7187 3.95421H48.9995C48.9206 3.04555 48.2608 2.40935 47.3538 2.40935C46.4468 2.40935 45.796 3.04555 45.7172 3.95421H45.7187Z" fill="#808285"/>
        <path d="M53.2041 1.87213V2.48094C53.151 2.48094 53.0979 2.47181 53.0539 2.47181C52.0862 2.47181 51.4962 3.08975 51.4962 4.18409V6.54932H50.8712V1.90713H51.4689V2.81579C51.7586 2.19784 52.3486 1.87061 53.2026 1.87061L53.2041 1.87213Z" fill="#808285"/>
        <path d="M61.325 1.9071L59.5746 6.55081H58.9846L57.5239 2.74574L56.0632 6.55081H55.4732L53.7319 1.9071H54.3295L55.7811 5.8522L57.2676 1.9071H57.8045L59.2819 5.8522L60.7516 1.9071H61.3235H61.325Z" fill="#808285"/>
        <path d="M65.6175 3.6727V6.55085H65.0199V5.82637C64.7378 6.30276 64.1933 6.59499 63.4273 6.59499C62.3807 6.59499 61.7376 6.04706 61.7376 5.24495C61.7376 4.5296 62.1956 3.92992 63.5228 3.92992H64.9926V3.64682C64.9926 2.85232 64.5436 2.42007 63.6821 2.42007C63.0845 2.42007 62.5202 2.63163 62.1425 2.968L61.8604 2.50073C62.3261 2.10348 63.0132 1.87366 63.7428 1.87366C64.9395 1.87366 65.616 2.47334 65.616 3.67422L65.6175 3.6727ZM64.9926 5.15515V4.39566H63.541C62.6431 4.39566 62.3534 4.74877 62.3534 5.22516C62.3534 5.76396 62.7842 6.09881 63.5228 6.09881C64.2615 6.09881 64.7454 5.76396 64.9926 5.15363V5.15515Z" fill="#808285"/>
        <path d="M66.8674 4.22823C66.8674 2.84166 67.87 1.87061 69.2518 1.87061C70.0344 1.87061 70.6942 2.17958 71.0643 2.78839L70.5987 3.10649C70.2817 2.63923 69.7887 2.41854 69.2533 2.41854C68.2416 2.41854 67.5029 3.14302 67.5029 4.22823C67.5029 5.31343 68.2416 6.03792 69.2533 6.03792C69.7902 6.03792 70.2832 5.82636 70.5987 5.35757L71.0643 5.67568C70.6942 6.27536 70.0344 6.59346 69.2518 6.59346C67.87 6.59346 66.8674 5.61327 66.8674 4.22823Z" fill="#808285"/>
        <path d="M76.1046 1.9071L73.7915 7.10635C73.4048 8.01501 72.9118 8.30724 72.252 8.30724C71.8212 8.30724 71.4071 8.16569 71.1265 7.88411L71.4162 7.41685C71.6453 7.64668 71.9259 7.76996 72.2611 7.76996C72.6752 7.76996 72.9558 7.57514 73.2197 6.99372L73.4214 6.5432L71.354 1.90863H72.0048L73.746 5.85372L75.4873 1.90863H76.1031L76.1046 1.9071Z" fill="#808285"/>
        <path d="M75.19 8.00587L75.41 7.52948C75.595 7.68777 75.8407 7.76844 76.132 7.76844C76.6249 7.76844 76.8979 7.4686 76.8979 6.89479V1.9071H77.5229V6.89479C77.5229 7.75169 77.0481 8.30723 76.1684 8.30723C75.7983 8.30723 75.4206 8.20982 75.1915 8.00739L75.19 8.00587ZM76.7554 0.441388C76.7554 0.20243 76.9571 0 77.2134 0C77.4698 0 77.6715 0.19482 77.6715 0.432256C77.6715 0.687957 77.4774 0.891909 77.2134 0.891909C76.9495 0.891909 76.7554 0.689479 76.7554 0.441388Z" fill="#808285"/>
        <path d="M83.5203 3.85837V6.55084H82.8953V3.92078C82.8953 2.94059 82.3857 2.43832 81.506 2.43832C80.5125 2.43832 79.8875 3.05627 79.8875 4.1156V6.55237H79.2626V1.90713H79.8602V2.76251C80.1939 2.19784 80.8189 1.87061 81.6197 1.87061C82.7452 1.87061 83.5203 2.52356 83.5203 3.85685V3.85837Z" fill="#808285"/>
        <path d="M89.0187 1.9071L86.7055 7.10635C86.3188 8.01501 85.8258 8.30724 85.166 8.30724C84.7352 8.30724 84.3211 8.16569 84.0405 7.88411L84.3302 7.41685C84.5593 7.64668 84.8399 7.76996 85.1751 7.76996C85.5892 7.76996 85.8698 7.57514 86.1337 6.99372L86.3354 6.5432L84.268 1.90863H84.9187L86.66 5.85372L88.4013 1.90863H89.0171L89.0187 1.9071Z" fill="#808285"/>
        <path d="M61.0414 40.075H54.1248L52.8052 43.2788H49.2725L55.9131 28.3295H59.3183L65.98 43.2788H62.3625L61.0429 40.075H61.0414ZM59.9553 37.4495L57.5922 31.7251L55.229 37.4495H59.9538H59.9553Z" fill="#00863F"/>
        <path d="M80.4518 33.754C80.4518 37.0857 77.9612 39.1572 73.9811 39.1572H70.9809V43.2788H67.5332V28.3295H73.9827C77.9627 28.3295 80.4533 30.4009 80.4533 33.754H80.4518ZM76.9616 33.754C76.9616 32.1102 75.8969 31.1483 73.79 31.1483H70.9809V36.3384H73.79C75.8969 36.3384 76.9616 35.378 76.9616 33.754Z" fill="#00863F"/>
        <path d="M85.5816 31.1483H80.8143V28.3295H93.7966V31.1483H89.0293V43.2788H85.5816V31.1483Z" fill="#00863F"/>
        <path d="M107.185 40.5027V43.2788H95.6501V28.3295H106.909V31.1056H99.0765V34.3521H105.993V37.0431H99.0765V40.5027H107.185Z" fill="#00863F"/>
        <path d="M109.931 28.3295H113.378V40.46H120.849V43.2788H109.931V28.3295Z" fill="#00863F"/>
        <path d="M122.787 28.3295H126.235V43.2788H122.787V28.3295Z" fill="#00863F"/>
        <path d="M143.431 28.3295V43.2788H140.6L133.173 34.203V43.2788H129.767V28.3295H132.619L140.025 37.4053V28.3295H143.431Z" fill="#00863F"/>
        <path d="M158.5 40.5027V43.2788H146.965V28.3295H158.224V31.1056H150.391V34.3521H157.308V37.0431H150.391V40.5027H158.5Z" fill="#00863F"/>
    </g>
    <defs>
        <clipPath id="clip0_2145_796">
            <rect width="158" height="56" fill="white" transform="translate(0.5)"/>
        </clipPath>
    </defs>
</svg>
