<svg width="46" height="41" viewBox="0 0 46 41" fill="none" xmlns="http://www.w3.org/2000/svg">
    <path fill-rule="evenodd" clip-rule="evenodd" d="M22.9649 0.157227C22.7774 0.157227 22.5963 0.225447 22.4554 0.349157L3.1966 17.2608C3.04244 17.3962 2.94849 17.5874 2.93551 17.7921C2.92252 17.9969 2.99157 18.1984 3.12739 18.3521L5.41898 20.9463C5.70061 21.2651 6.18705 21.2961 6.50681 21.0156L22.9649 6.57654L39.4229 21.0156C39.7427 21.2961 40.2291 21.2651 40.5108 20.9463L42.8023 18.3521C42.9381 18.1984 43.0071 17.9969 42.9942 17.7922C42.9812 17.5874 42.8873 17.3963 42.7332 17.2609L23.4806 0.349239C23.3397 0.225479 23.1586 0.157227 22.9711 0.157227H22.9649ZM4.79735 17.9102L22.9679 1.95417L41.1324 17.9101L39.8629 19.3473L23.4741 4.96906C23.1827 4.71346 22.747 4.71346 22.4557 4.96906L6.06686 19.3473L4.79735 17.9102ZM10.7845 34.4439V20.0583H9.24034V34.4439H6.44236C6.01595 34.4439 5.67028 34.7896 5.67028 35.216C5.67028 35.6424 6.01595 35.988 6.44236 35.988H25.3738C25.8002 35.988 26.1459 35.6424 26.1459 35.216C26.1459 34.7896 25.8002 34.4439 25.3738 34.4439H21.8716V22.5167C21.8716 22.0903 21.5259 21.7446 21.0995 21.7446H15.1946C14.7682 21.7446 14.4225 22.0903 14.4225 22.5167V34.4439H10.7845ZM15.9667 34.4439H20.3274V23.2888H15.9667V34.4439ZM1.00066 34.4439C0.574249 34.4439 0.228577 34.7896 0.228577 35.216C0.228577 35.6424 0.574249 35.988 1.00066 35.988H3.23042C3.65683 35.988 4.0025 35.6424 4.0025 35.216C4.0025 34.7896 3.65683 34.4439 3.23042 34.4439H1.00066ZM9.333 2.31909H14.5338V5.51242H12.9896V3.86325H10.8772V8.93428H9.333V2.31909ZM23.0946 13.2086C23.0946 12.8675 23.3711 12.5909 23.7123 12.5909H26.6523C26.9935 12.5909 27.27 12.8675 27.27 13.2086V14.9813H29.0427C29.3838 14.9813 29.6604 15.2578 29.6604 15.599V18.539C29.6604 18.8802 29.3838 19.1567 29.0427 19.1567H27.27V20.9294C27.27 21.2705 26.9935 21.5471 26.6523 21.5471H23.7123C23.3711 21.5471 23.0946 21.2705 23.0946 20.9294V19.1567H21.3219C20.9808 19.1567 20.7042 18.8802 20.7042 18.539V15.599C20.7042 15.2578 20.9808 14.9813 21.3219 14.9813H23.0946V13.2086ZM24.3299 13.8263V15.599C24.3299 15.9401 24.0534 16.2166 23.7123 16.2166H21.9396V17.9214H23.7123C24.0534 17.9214 24.3299 18.1979 24.3299 18.539V20.3117H26.0347V18.539C26.0347 18.1979 26.3112 17.9214 26.6523 17.9214H28.425V16.2166H26.6523C26.3112 16.2166 26.0347 15.9401 26.0347 15.599V13.8263H24.3299ZM36.1427 40.1572C34.6541 40.1572 33.1841 39.7805 31.8499 39.0393C29.7807 37.8904 28.2798 36.0004 27.6313 33.7212C26.9951 31.5099 27.2421 29.169 28.3231 27.1245C28.5207 26.7477 28.9901 26.6057 29.3669 26.8033C29.7437 27.001 29.8857 27.4704 29.6881 27.8472C28.7925 29.5334 28.5886 31.4667 29.1137 33.295C29.651 35.1789 30.8864 36.7354 32.5973 37.6866C34.3082 38.6378 36.2848 38.8663 38.1625 38.3228C40.0463 37.7854 41.6029 36.5501 42.5541 34.8392C43.5053 33.1282 43.7338 31.1517 43.1903 29.274C42.6529 27.3901 41.4176 25.8336 39.7066 24.8824C37.9957 23.9312 36.0192 23.7027 34.1415 24.2462C33.1903 24.518 32.3193 24.9689 31.5534 25.5865C31.2199 25.8521 30.7319 25.8027 30.4664 25.4692C30.2008 25.1356 30.2502 24.6539 30.5837 24.3821C31.5102 23.6347 32.5664 23.0912 33.7153 22.7576C35.9945 22.1153 38.391 22.387 40.4602 23.5359C42.5294 24.6847 44.0303 26.5748 44.6788 28.8478C45.3274 31.127 45.0556 33.5173 43.9067 35.5865C42.7579 37.6557 40.8678 39.1566 38.5886 39.8052C37.7795 40.0337 36.958 40.1511 36.1365 40.1511L36.1427 40.1572ZM40.7672 27.8294C41.0943 28.103 41.1376 28.5899 40.8641 28.917L35.5274 35.2974C35.3746 35.4802 35.146 35.5821 34.9079 35.5737C34.6698 35.5653 34.449 35.4474 34.3094 35.2543L31.4125 31.2457C31.1628 30.9001 31.2405 30.4174 31.5861 30.1677C31.9317 29.9179 32.4143 29.9956 32.6641 30.3412L34.9797 33.5455L39.6796 27.9263C39.9532 27.5992 40.4401 27.5558 40.7672 27.8294Z" fill="#007F32"/>
</svg>
