<svg width="45" height="41" viewBox="0 0 45 41" fill="none" xmlns="http://www.w3.org/2000/svg">
    <path fill-rule="evenodd" clip-rule="evenodd" d="M19.6766 0.157227C15.0817 0.157227 11.358 3.88088 11.358 8.47582C11.358 10.7745 12.2945 12.8514 13.7978 14.3547L17.9884 18.5524L19.2409 17.3019L15.0493 13.1031C13.8623 11.9161 13.1279 10.2834 13.1279 8.47582C13.1279 4.85837 16.0592 1.92714 19.6766 1.92714C21.482 1.92714 23.113 2.65972 24.2997 3.84424L24.543 4.0945L24.5465 4.09107L32.3544 11.8989C32.0256 11.8591 31.6907 11.8386 31.3509 11.8386C27.2941 11.8386 23.9198 14.7386 23.1827 18.5743L24.9208 18.9083C25.5006 15.8909 28.1581 13.6086 31.3509 13.6086C33.038 13.6086 34.5716 14.2496 35.7397 15.2984L40.3251 19.8839L40.334 19.8926L40.5842 20.1359C41.7687 21.3225 42.5013 22.9536 42.5013 24.759C42.5013 28.3764 39.5701 31.3077 35.9527 31.3077C34.6919 31.3077 33.5215 30.9525 32.5245 30.3357L31.5932 31.8407C32.8617 32.6256 34.3533 33.0776 35.9527 33.0776C40.5476 33.0776 44.2712 29.3539 44.2712 24.759C44.2712 22.4622 43.3363 20.3867 41.8351 18.8837L41.8386 18.8801L25.5554 2.59696C24.0522 1.09369 21.9753 0.157227 19.6766 0.157227ZM5.41877 23.5384C2.91184 24.6665 1.79341 26.0425 1.79341 27.2369C1.79341 28.4312 2.91184 29.8072 5.41877 30.9353C7.84263 32.0261 11.2533 32.7236 15.0677 32.7236C16.4548 32.7236 17.7885 32.6314 19.0408 32.4615L14.442 27.8627L8.96994 22.3907C7.63975 22.688 6.44143 23.0782 5.41877 23.5384ZM11.0946 22.0122L21.1654 32.0831C22.4957 31.7857 23.694 31.3955 24.7167 30.9353C27.2237 29.8072 28.3421 28.4312 28.3421 27.2369C28.3421 26.0425 27.2237 24.6665 24.7167 23.5384C22.2929 22.4477 18.8822 21.7501 15.0677 21.7501C13.6806 21.7501 12.3469 21.8424 11.0946 22.0122ZM4.69246 21.9244C2.07474 23.1024 0.0234985 24.9122 0.0234985 27.2369V32.9006C0.0234985 35.2249 2.07375 37.0348 4.69126 38.2129C7.39172 39.4283 11.0608 40.1572 15.0677 40.1572C19.0747 40.1572 22.7438 39.4283 25.4442 38.2129C28.0618 37.0348 30.112 35.2249 30.112 32.9006V27.2369C30.112 24.9122 28.0608 23.1024 25.443 21.9244C22.7422 20.709 19.0732 19.9802 15.0677 19.9802C11.0623 19.9802 7.39325 20.709 4.69246 21.9244ZM28.3421 32.9006V30.7299C27.5509 31.443 26.5474 32.0524 25.443 32.5493C22.7422 33.7647 19.0732 34.4935 15.0677 34.4935C11.0623 34.4935 7.39325 33.7647 4.69246 32.5493C3.58814 32.0524 2.58463 31.443 1.79341 30.7299V32.9006C1.79341 34.0949 2.91131 35.4708 5.41769 36.5989C7.84112 37.6897 11.2517 38.3873 15.0677 38.3873C18.8838 38.3873 22.2944 37.6897 24.7178 36.5989C27.2242 35.4708 28.3421 34.0949 28.3421 32.9006Z" fill="#007F32"/>
</svg>
