<svg width="59" height="30" viewBox="0 0 59 30" fill="none" xmlns="http://www.w3.org/2000/svg">
    <path fill-rule="evenodd" clip-rule="evenodd" d="M41.5446 2.33061L41.5436 2.33065C41.5328 2.33107 41.522 2.33128 41.5112 2.33128H14.7206C14.2586 2.33128 13.884 1.95673 13.884 1.4947C13.884 1.03267 14.2586 0.658119 14.7206 0.658119H41.4977L41.5225 0.657584C41.5473 0.657187 41.5802 0.657025 41.6212 0.657608C41.703 0.658772 41.8165 0.662911 41.9595 0.674086C42.2456 0.696438 42.6493 0.746931 43.152 0.857995C44.1586 1.08038 45.5567 1.54443 47.197 2.50543C50.4827 4.43038 54.6899 8.31868 58.6801 16.1394C58.7402 16.2572 58.7715 16.3875 58.7715 16.5196V22.1013C58.7715 24.0357 57.1923 25.6149 55.2578 25.6149H53.4574C53.0718 27.9133 51.0722 29.6573 48.6657 29.6573C46.259 29.6573 44.2605 27.9081 43.8743 25.6149H29.5245C29.139 27.9133 27.1394 29.6573 24.7328 29.6573C22.3261 29.6573 20.3276 27.9081 19.9414 25.6149H17.7859C15.8515 25.6149 14.2722 24.0357 14.2722 22.1013V19.7655H9.33308C8.87105 19.7655 8.4965 19.391 8.4965 18.929C8.4965 18.4669 8.87105 18.0924 9.33308 18.0924H18.2343C18.6963 18.0924 19.0709 18.4669 19.0709 18.929C19.0709 19.391 18.6963 19.7655 18.2343 19.7655H15.9454V22.1013C15.9454 23.1116 16.7755 23.9417 17.7859 23.9417H19.9507C20.3586 21.6748 22.3434 19.9463 24.7328 19.9463C27.1221 19.9463 29.108 21.6698 29.5152 23.9417H43.8836C44.2915 21.6748 46.2762 19.9463 48.6657 19.9463C51.055 19.9463 53.0409 21.6698 53.4481 23.9418H55.2578C56.2682 23.9418 57.0983 23.1116 57.0983 22.1013V16.7215C56.6769 15.9028 56.2541 15.1307 55.8313 14.4028C55.8121 14.4041 55.7928 14.4048 55.7733 14.4048H45.2324C44.2858 14.4048 43.5211 14.1531 42.9223 13.7336C42.3308 13.3193 41.9505 12.7762 41.7071 12.2645C41.4647 11.7552 41.3477 11.2566 41.29 10.8927C41.2608 10.7088 41.2459 10.5537 41.2383 10.4416C41.2345 10.3854 41.2325 10.3396 41.2314 10.3058L41.2308 10.2826L41.2304 10.2643L41.2302 10.2507L41.2302 10.2457L41.2302 10.2437V10.2428C41.2302 10.2423 41.2302 10.2419 42.0628 10.2419H41.2302V6.06574C41.2302 5.60371 41.6048 5.22917 42.0668 5.22917C42.5288 5.22917 42.9034 5.60371 42.9034 6.06574V10.2387L42.9037 10.2528C42.9042 10.2677 42.9053 10.2934 42.9076 10.3281C42.9124 10.3979 42.9222 10.5027 42.9425 10.6306C42.9837 10.8904 43.0646 11.2234 43.2179 11.5456C43.3701 11.8655 43.5834 12.1539 43.8822 12.3633C44.1737 12.5675 44.5961 12.7316 45.2324 12.7316H54.813C51.7258 7.90766 48.7076 5.32958 46.3512 3.94908C44.8686 3.08048 43.6352 2.67825 42.7911 2.49176C42.3684 2.39838 42.042 2.35879 41.8292 2.34216C41.7228 2.33384 41.6448 2.33127 41.5973 2.3306C41.5736 2.33026 41.5576 2.33039 41.5494 2.33053L41.5465 2.33053L41.5446 2.33061ZM45.48 24.8051C45.48 23.051 46.9067 21.6194 48.6657 21.6194C50.4256 21.6194 51.8514 23.0452 51.8514 24.8051C51.8514 26.5632 50.4274 27.9841 48.6657 27.9841C46.9048 27.9841 45.48 26.5574 45.48 24.8051ZM24.7328 21.6194C22.9738 21.6194 21.5471 23.051 21.5471 24.8051C21.5471 26.5574 22.972 27.9841 24.7328 27.9841C26.4946 27.9841 27.9185 26.5632 27.9185 24.8051C27.9185 23.0452 26.4928 21.6194 24.7328 21.6194ZM4.24 5.87832C4.24 5.41629 4.61455 5.04174 5.07658 5.04174H22.6916C23.1536 5.04174 23.5282 5.41629 23.5282 5.87832C23.5282 6.34035 23.1536 6.7149 22.6916 6.7149H5.07658C4.61455 6.7149 4.24 6.34035 4.24 5.87832ZM0.27124 14.5787C0.27124 14.1167 0.645789 13.7422 1.10782 13.7422H22.6915C23.1536 13.7422 23.5281 14.1167 23.5281 14.5787C23.5281 15.0408 23.1536 15.4153 22.6915 15.4153H1.10782C0.645789 15.4153 0.27124 15.0408 0.27124 14.5787ZM10.2098 9.39196C9.74774 9.39196 9.37319 9.76651 9.37319 10.2285C9.37319 10.6906 9.74774 11.0651 10.2098 11.0651H27.1488C27.6108 11.0651 27.9854 10.6906 27.9854 10.2285C27.9854 9.76651 27.6108 9.39196 27.1488 9.39196H10.2098Z" fill="#007F32"/>
</svg>
